<svg width="176" height="40" viewBox="0 0 176 40" fill="none" xmlns="http://www.w3.org/2000/svg">
<g clip-path="url(#clip0_5678_64)">
<g clip-path="url(#clip1_5678_64)">
<path fill-rule="evenodd" clip-rule="evenodd" d="M38.2648 13.4273C38.9714 13.7335 39.2151 13.8391 39.2468 13.8528C39.8152 14.0986 40.1238 14.7295 39.953 15.3381C39.8204 15.8077 39.5286 16.0152 39.1923 16.1729C38.9914 16.2671 38.7574 16.1745 38.6656 15.9725C38.5341 15.6835 38.2605 15.4703 37.9277 15.4275C37.9404 15.4292 20.1261 13.1303 20.07 13.127C19.507 13.0883 18.9512 13.4612 18.7926 14.0466C18.5904 14.7397 19.0696 15.5185 19.8387 15.6146C20.9627 15.7596 23.5889 16.0985 26.4236 16.4643C30.2948 16.9638 34.5549 17.5136 35.9094 17.6881C36.1042 17.7132 36.2497 17.8791 36.2497 18.0755V31.8757C36.2497 32.5862 35.6577 33.1578 34.9399 33.1243C34.2673 33.0931 33.7496 32.5139 33.7496 31.8406V18.5289C33.2082 18.7633 21.365 23.8955 20.4958 24.2721C20.1767 24.4105 19.8173 24.4089 19.502 24.2721C15.1975 22.4069 11.6003 20.8481 8.61829 19.5558C5.25918 18.1002 2.68063 16.9828 0.750981 16.1467C-0.245477 15.7161 -0.255165 14.2879 0.750981 13.8528L19.502 5.7274C19.8192 5.58989 20.1786 5.58989 20.4958 5.7274C31.874 10.6581 36.505 12.6648 38.2648 13.4273ZM8.04401 22.032L18.5072 26.566C19.4582 26.9787 20.5394 26.979 21.4894 26.566L31.9534 22.032C32.2114 21.9203 32.4994 22.1093 32.4994 22.3905V26.8754C32.4994 31.0811 27.0084 34.3758 19.9987 34.3758C12.989 34.3758 7.49805 31.0811 7.49805 26.8754V22.3905C7.49805 22.1093 7.78603 21.9202 8.04401 22.032Z" fill="#4EAAFF"/>
</g>
</g>
<path d="M55.272 27.788C52.2 27.788 49.992 26.756 48.504 25.244L50.352 22.652C51.48 23.828 53.232 24.812 55.44 24.812C57.312 24.812 58.224 23.948 58.224 23.036C58.224 20.204 49.008 22.148 49.008 16.124C49.008 13.46 51.312 11.252 55.08 11.252C57.624 11.252 59.736 12.02 61.32 13.484L59.424 15.98C58.128 14.78 56.4 14.228 54.768 14.228C53.304 14.228 52.488 14.876 52.488 15.836C52.488 18.38 61.68 16.676 61.68 22.652C61.68 25.58 59.592 27.788 55.272 27.788ZM81.3506 27.5H78.2786V20.18C78.2786 19.1 77.7986 18.332 76.5506 18.332C75.4706 18.332 74.5826 19.052 74.1506 19.676V27.5H71.0786V20.18C71.0786 19.1 70.5986 18.332 69.3506 18.332C68.2946 18.332 67.4066 19.052 66.9506 19.7V27.5H63.9026V15.908H66.9506V17.42C67.4306 16.724 68.9666 15.62 70.7426 15.62C72.4466 15.62 73.5266 16.412 73.9586 17.732C74.6306 16.676 76.1666 15.62 77.9426 15.62C80.0786 15.62 81.3506 16.748 81.3506 19.124V27.5ZM94.3481 27.5H91.3001V26.3C90.5081 27.236 89.1401 27.788 87.6281 27.788C85.7801 27.788 83.5961 26.54 83.5961 23.948C83.5961 21.236 85.7801 20.204 87.6281 20.204C89.1641 20.204 90.5321 20.708 91.3001 21.62V20.06C91.3001 18.884 90.2921 18.116 88.7561 18.116C87.5081 18.116 86.3561 18.572 85.3721 19.484L84.2201 17.444C85.6361 16.196 87.4601 15.62 89.2841 15.62C91.9241 15.62 94.3481 16.676 94.3481 20.012V27.5ZM88.8521 25.724C89.8361 25.724 90.7961 25.388 91.3001 24.716V23.276C90.7961 22.604 89.8361 22.268 88.8521 22.268C87.6521 22.268 86.6681 22.892 86.6681 24.02C86.6681 25.1 87.6521 25.724 88.8521 25.724ZM100.419 27.5H97.3714V15.908H100.419V17.492C101.235 16.46 102.675 15.62 104.115 15.62V18.596C103.899 18.548 103.611 18.524 103.275 18.524C102.267 18.524 100.923 19.1 100.419 19.844V27.5ZM109.908 27.788C107.772 27.788 106.62 26.684 106.62 24.62V18.572H104.7V15.908H106.62V12.74H109.692V15.908H112.044V18.572H109.692V23.804C109.692 24.524 110.076 25.076 110.748 25.076C111.204 25.076 111.636 24.908 111.804 24.74L112.452 27.044C111.996 27.452 111.18 27.788 109.908 27.788Z" fill="#4EAAFF"/>
<path d="M119.889 27.788C116.817 27.788 114.609 26.756 113.121 25.244L114.969 22.652C116.097 23.828 117.849 24.812 120.057 24.812C121.929 24.812 122.841 23.948 122.841 23.036C122.841 20.204 113.625 22.148 113.625 16.124C113.625 13.46 115.929 11.252 119.697 11.252C122.241 11.252 124.353 12.02 125.937 13.484L124.041 15.98C122.745 14.78 121.017 14.228 119.385 14.228C117.921 14.228 117.105 14.876 117.105 15.836C117.105 18.38 126.297 16.676 126.297 22.652C126.297 25.58 124.209 27.788 119.889 27.788ZM132.08 27.788C129.944 27.788 128.792 26.684 128.792 24.62V18.572H126.872V15.908H128.792V12.74H131.864V15.908H134.216V18.572H131.864V23.804C131.864 24.524 132.248 25.076 132.92 25.076C133.376 25.076 133.808 24.908 133.976 24.74L134.624 27.044C134.168 27.452 133.352 27.788 132.08 27.788ZM147.173 27.5H144.125V26.036C143.333 26.924 141.941 27.788 140.045 27.788C137.501 27.788 136.301 26.396 136.301 24.14V15.908H139.349V22.94C139.349 24.548 140.189 25.076 141.485 25.076C142.661 25.076 143.597 24.428 144.125 23.756V15.908H147.173V27.5ZM161.24 27.5H158.168V26.012C157.256 27.164 155.984 27.788 154.592 27.788C151.664 27.788 149.456 25.58 149.456 21.716C149.456 17.924 151.64 15.62 154.592 15.62C155.96 15.62 157.256 16.22 158.168 17.396V11.492H161.24V27.5ZM155.528 25.076C156.56 25.076 157.664 24.524 158.168 23.756V19.652C157.664 18.884 156.56 18.332 155.528 18.332C153.8 18.332 152.6 19.7 152.6 21.716C152.6 23.708 153.8 25.076 155.528 25.076ZM163.854 32.036L164.31 29.3C164.574 29.42 164.982 29.492 165.27 29.492C166.062 29.492 166.59 29.276 166.878 28.652L167.31 27.668L162.606 15.908H165.87L168.894 23.972L171.918 15.908H175.206L169.758 29.396C168.894 31.58 167.358 32.156 165.366 32.204C165.006 32.204 164.238 32.132 163.854 32.036Z" fill="white"/>
<defs>
<clipPath id="clip0_5678_64">
<rect width="40" height="40" fill="white"/>
</clipPath>
<clipPath id="clip1_5678_64">
<rect width="40" height="40" fill="white"/>
</clipPath>
</defs>
</svg>
