<svg width="179" height="40" viewBox="0 0 179 40" fill="none" xmlns="http://www.w3.org/2000/svg">
<g clip-path="url(#clip0_3_14)">
<circle cx="20" cy="20" r="16" fill="#FF842B"/>
<path fill-rule="evenodd" clip-rule="evenodd" d="M20.874 25.3558C30.309 23.7875 37.5009 19.7144 36.9375 16.2581C36.8667 15.8233 36.6764 15.419 36.3792 15.0475C37.799 15.7543 38.6825 16.6713 38.8611 17.7673C39.4761 21.5402 31.5065 26.0062 21.0607 27.7425C10.6148 29.4787 1.64827 27.8277 1.03332 24.0548C0.823846 22.7696 1.6105 21.404 3.15185 20.0932C2.80924 20.7156 2.67242 21.3357 2.77045 21.9372C3.33379 25.3934 11.439 26.924 20.874 25.3558Z" fill="black"/>
<path d="M52.992 27.5V21.812H57.072C60.528 21.812 62.448 19.436 62.448 16.652C62.448 13.844 60.552 11.492 57.072 11.492H49.584V27.5H52.992ZM56.616 18.812H52.992V14.492H56.616C57.96 14.492 58.968 15.308 58.968 16.652C58.968 17.972 57.96 18.812 56.616 18.812ZM67.5366 27.5V11.492H64.4886V27.5H67.5366ZM80.5669 27.5V20.012C80.5669 16.676 78.1429 15.62 75.5029 15.62C73.6789 15.62 71.8549 16.196 70.4389 17.444L71.5909 19.484C72.5749 18.572 73.7269 18.116 74.9749 18.116C76.5109 18.116 77.5189 18.884 77.5189 20.06V21.62C76.7509 20.708 75.3829 20.204 73.8469 20.204C71.9989 20.204 69.8149 21.236 69.8149 23.948C69.8149 26.54 71.9989 27.788 73.8469 27.788C75.3589 27.788 76.7269 27.236 77.5189 26.3V27.5H80.5669ZM75.0709 25.724C73.8709 25.724 72.8869 25.1 72.8869 24.02C72.8869 22.892 73.8709 22.268 75.0709 22.268C76.0549 22.268 77.0149 22.604 77.5189 23.276V24.716C77.0149 25.388 76.0549 25.724 75.0709 25.724ZM94.4621 27.5V19.316C94.4621 17.06 93.2381 15.62 90.6941 15.62C88.7981 15.62 87.3821 16.532 86.6381 17.42V15.908H83.5901V27.5H86.6381V19.7C87.1421 19.004 88.0781 18.332 89.2781 18.332C90.5741 18.332 91.4141 18.884 91.4141 20.492V27.5H94.4621ZM102.937 27.788C104.737 27.788 106.561 27.236 107.713 26.18L106.369 24.212C105.625 24.932 104.257 25.364 103.273 25.364C101.305 25.364 100.129 24.14 99.9366 22.676H108.553V22.004C108.553 18.212 106.201 15.62 102.745 15.62C99.2166 15.62 96.7446 18.332 96.7446 21.692C96.7446 25.412 99.4086 27.788 102.937 27.788ZM105.601 20.612H99.8886C100.033 19.46 100.849 18.044 102.745 18.044C104.761 18.044 105.529 19.508 105.601 20.612ZM114.642 27.788C115.914 27.788 116.73 27.452 117.186 27.044L116.538 24.74C116.37 24.908 115.938 25.076 115.482 25.076C114.81 25.076 114.426 24.524 114.426 23.804V18.572H116.778V15.908H114.426V12.74H111.354V15.908H109.434V18.572H111.354V24.62C111.354 26.684 112.506 27.788 114.642 27.788Z" fill="#FF842B"/>
<path d="M129.112 27.5V24.5H122.344V11.492H118.936V27.5H129.112ZM136.616 27.788C138.416 27.788 140.24 27.236 141.392 26.18L140.048 24.212C139.304 24.932 137.936 25.364 136.952 25.364C134.984 25.364 133.808 24.14 133.616 22.676H142.232V22.004C142.232 18.212 139.88 15.62 136.424 15.62C132.896 15.62 130.424 18.332 130.424 21.692C130.424 25.412 133.088 27.788 136.616 27.788ZM139.28 20.612H133.568C133.712 19.46 134.528 18.044 136.424 18.044C138.44 18.044 139.208 19.508 139.28 20.612ZM154.442 27.5V20.012C154.442 16.676 152.018 15.62 149.378 15.62C147.554 15.62 145.73 16.196 144.314 17.444L145.466 19.484C146.45 18.572 147.602 18.116 148.85 18.116C150.386 18.116 151.394 18.884 151.394 20.06V21.62C150.626 20.708 149.258 20.204 147.722 20.204C145.874 20.204 143.69 21.236 143.69 23.948C143.69 26.54 145.874 27.788 147.722 27.788C149.234 27.788 150.602 27.236 151.394 26.3V27.5H154.442ZM148.946 25.724C147.746 25.724 146.762 25.1 146.762 24.02C146.762 22.892 147.746 22.268 148.946 22.268C149.93 22.268 150.89 22.604 151.394 23.276V24.716C150.89 25.388 149.93 25.724 148.946 25.724ZM160.513 27.5V19.844C161.017 19.1 162.361 18.524 163.369 18.524C163.705 18.524 163.993 18.548 164.209 18.596V15.62C162.769 15.62 161.329 16.46 160.513 17.492V15.908H157.465V27.5H160.513ZM176.986 27.5V19.316C176.986 17.06 175.762 15.62 173.218 15.62C171.322 15.62 169.906 16.532 169.162 17.42V15.908H166.114V27.5H169.162V19.7C169.666 19.004 170.602 18.332 171.802 18.332C173.098 18.332 173.938 18.884 173.938 20.492V27.5H176.986Z" fill="black"/>
</g>
<defs>
<clipPath id="clip0_3_14">
<rect width="179" height="40" fill="white"/>
</clipPath>
</defs>
</svg>
